<?xml version="1.0" encoding="UTF-8" standalone="no" ?>
<!DOCTYPE svg PUBLIC "-//W3C//DTD SVG 1.1//EN" "http://www.w3.org/Graphics/SVG/1.1/DTD/svg11.dtd">
<svg xmlns="http://www.w3.org/2000/svg" xmlns:xlink="http://www.w3.org/1999/xlink" version="1.1" width="395.4500012397766" height="476.49699999999996" xml:space="preserve">
<desc>Created with Fabric.js 1.6.0-rc.1</desc>
<defs></defs>
<g style="stroke: none; stroke-width: 1; stroke-dasharray: none; stroke-linecap: butt; stroke-linejoin: miter; stroke-miterlimit: 10; fill: none; fill-rule: nonzero; opacity: 1;" transform="translate(335.0000000000001 10.000000000000002) scale(0.04 0.04)" >
  <path d="M 300.137 176.552 v 13.992 c 0 23.887 13.489 45.736 34.842 56.435 L 352.997 256 l -18.017 9.022 c -21.354 10.699 -34.842 32.547 -34.842 56.435 v 13.992 l -4.705 -3.769 c -23.058 -18.441 -55.808 -18.441 -78.866 0 l -4.705 3.769 v -13.912 c 0 -23.932 -13.533 -45.806 -34.94 -56.488 L 158.781 256 l 18.141 -9.048 c 21.407 -10.681 34.94 -32.556 34.94 -56.488 v -13.912 l 4.705 3.769 c 23.058 18.441 55.808 18.441 78.866 0 L 300.137 176.552 z" style="stroke: none; stroke-width: 1; stroke-dasharray: none; stroke-linecap: butt; stroke-linejoin: miter; stroke-miterlimit: 10; fill: #00d600; fill-rule: nonzero; opacity: 1;" transform=" matrix(1 0 0 1 0 0) " stroke-linecap="round" />
  <path d="M 256 238.345 c -4.882 0 -8.828 -3.946 -8.828 -8.828 V 52.966 c 0 -4.882 3.946 -8.828 8.828 -8.828 s 8.828 3.946 8.828 8.828 v 176.552 C 264.828 234.399 260.882 238.345 256 238.345" style="stroke: none; stroke-width: 1; stroke-dasharray: none; stroke-linecap: butt; stroke-linejoin: miter; stroke-miterlimit: 10; fill: #1c6db1; fill-rule: nonzero; opacity: 1;" transform=" matrix(1 0 0 1 0 0) " stroke-linecap="round" />
  <path d="M 273.655 26.483 c 0 14.627 -7.901 26.483 -17.655 26.483 s -17.655 -11.855 -17.655 -26.483 S 246.246 0 256 0 S 273.655 11.855 273.655 26.483" style="stroke: none; stroke-width: 1; stroke-dasharray: none; stroke-linecap: butt; stroke-linejoin: miter; stroke-miterlimit: 10; fill: #00d600; fill-rule: nonzero; opacity: 1;" transform=" matrix(1 0 0 1 0 0) " stroke-linecap="round" />
  <path d="M 256 114.759 c -2.26 0 -4.52 -0.865 -6.241 -2.586 l -26.483 -26.483 c -3.452 -3.452 -3.452 -9.031 0 -12.482 c 3.452 -3.452 9.031 -3.452 12.482 0 L 256 93.449 l 20.242 -20.242 c 3.452 -3.452 9.031 -3.452 12.482 0 c 3.452 3.452 3.452 9.031 0 12.482 l -26.483 26.483 C 260.52 113.894 258.26 114.759 256 114.759" style="stroke: none; stroke-width: 1; stroke-dasharray: none; stroke-linecap: butt; stroke-linejoin: miter; stroke-miterlimit: 10; fill: #1c6db1; fill-rule: nonzero; opacity: 1;" transform=" matrix(1 0 0 1 0 0) " stroke-linecap="round" />
  <path d="M 256 167.724 c -2.26 0 -4.52 -0.865 -6.241 -2.586 L 205.621 121 c -3.452 -3.452 -3.452 -9.031 0 -12.482 c 3.452 -3.452 9.031 -3.452 12.482 0 L 256 146.414 l 37.897 -37.897 c 3.452 -3.452 9.031 -3.452 12.482 0 c 3.452 3.452 3.452 9.031 0 12.482 l -44.138 44.138 C 260.52 166.859 258.26 167.724 256 167.724" style="stroke: none; stroke-width: 1; stroke-dasharray: none; stroke-linecap: butt; stroke-linejoin: miter; stroke-miterlimit: 10; fill: #1c6db1; fill-rule: nonzero; opacity: 1;" transform=" matrix(1 0 0 1 0 0) " stroke-linecap="round" />
  <path d="M 256 467.862 c -4.882 0 -8.828 -3.946 -8.828 -8.828 V 282.483 c 0 -4.882 3.946 -8.828 8.828 -8.828 s 8.828 3.946 8.828 8.828 v 176.552 C 264.828 463.916 260.882 467.862 256 467.862" style="stroke: none; stroke-width: 1; stroke-dasharray: none; stroke-linecap: butt; stroke-linejoin: miter; stroke-miterlimit: 10; fill: #1c6db1; fill-rule: nonzero; opacity: 1;" transform=" matrix(1 0 0 1 0 0) " stroke-linecap="round" />
  <path d="M 238.345 485.517 c 0 -14.627 7.901 -26.483 17.655 -26.483 s 17.655 11.855 17.655 26.483 S 265.754 512 256 512 S 238.345 500.145 238.345 485.517" style="stroke: none; stroke-width: 1; stroke-dasharray: none; stroke-linecap: butt; stroke-linejoin: miter; stroke-miterlimit: 10; fill: #00d600; fill-rule: nonzero; opacity: 1;" transform=" matrix(1 0 0 1 0 0) " stroke-linecap="round" />
  <path d="M 282.483 441.379 c -2.26 0 -4.52 -0.865 -6.241 -2.586 L 256 418.551 l -20.242 20.242 c -3.452 3.452 -9.031 3.452 -12.482 0 c -3.452 -3.452 -3.452 -9.031 0 -12.482 l 26.483 -26.483 c 3.452 -3.452 9.031 -3.452 12.482 0 l 26.483 26.483 c 3.452 3.452 3.452 9.031 0 12.482 C 287.003 440.514 284.743 441.379 282.483 441.379" style="stroke: none; stroke-width: 1; stroke-dasharray: none; stroke-linecap: butt; stroke-linejoin: miter; stroke-miterlimit: 10; fill: #1c6db1; fill-rule: nonzero; opacity: 1;" transform=" matrix(1 0 0 1 0 0) " stroke-linecap="round" />
  <path d="M 300.138 406.069 c -2.26 0 -4.52 -0.865 -6.241 -2.586 L 256 365.586 l -37.897 37.897 c -3.452 3.452 -9.031 3.452 -12.482 0 c -3.452 -3.452 -3.452 -9.031 0 -12.482 l 44.138 -44.138 c 3.452 -3.452 9.031 -3.452 12.482 0 L 306.379 391 c 3.452 3.452 3.452 9.031 0 12.482 C 304.658 405.204 302.398 406.069 300.138 406.069" style="stroke: none; stroke-width: 1; stroke-dasharray: none; stroke-linecap: butt; stroke-linejoin: miter; stroke-miterlimit: 10; fill: #1c6db1; fill-rule: nonzero; opacity: 1;" transform=" matrix(1 0 0 1 0 0) " stroke-linecap="round" />
  <path d="M 274.724 246.103 c -2.26 0 -4.52 -0.865 -6.241 -2.586 c -3.452 -3.452 -3.452 -9.031 0 -12.482 l 124.849 -124.849 c 3.443 -3.443 9.031 -3.443 12.482 0 c 3.443 3.452 3.443 9.039 0 12.482 L 280.965 243.517 C 279.244 245.238 276.984 246.103 274.724 246.103" style="stroke: none; stroke-width: 1; stroke-dasharray: none; stroke-linecap: butt; stroke-linejoin: miter; stroke-miterlimit: 10; fill: #1c6db1; fill-rule: nonzero; opacity: 1;" transform=" matrix(1 0 0 1 0 0) " stroke-linecap="round" />
  <path d="M 430.777 106.191 c -10.346 10.346 -24.311 13.135 -31.214 6.241 c -6.894 -6.894 -4.096 -20.868 6.25 -31.206 c 10.337 -10.346 24.311 -13.144 31.206 -6.25 C 443.913 81.879 441.123 95.845 430.777 106.191" style="stroke: none; stroke-width: 1; stroke-dasharray: none; stroke-linecap: butt; stroke-linejoin: miter; stroke-miterlimit: 10; fill: #00d600; fill-rule: nonzero; opacity: 1;" transform=" matrix(1 0 0 1 0 0) " stroke-linecap="round" />
  <path d="M 397.241 158.716 h -35.125 c -4.882 0 -8.828 -3.946 -8.828 -8.828 v -35.125 c 0 -4.882 3.946 -8.828 8.828 -8.828 c 4.873 0 8.828 3.946 8.828 8.828 v 26.297 h 26.297 c 4.882 0 8.828 3.946 8.828 8.828 S 402.123 158.716 397.241 158.716" style="stroke: none; stroke-width: 1; stroke-dasharray: none; stroke-linecap: butt; stroke-linejoin: miter; stroke-miterlimit: 10; fill: #1c6db1; fill-rule: nonzero; opacity: 1;" transform=" matrix(1 0 0 1 0 0) " stroke-linecap="round" />
  <path d="M 388.414 194.207 h -61.793 c -4.882 0 -8.828 -3.946 -8.828 -8.828 v -61.793 c 0 -4.882 3.946 -8.828 8.828 -8.828 c 4.882 0 8.828 3.946 8.828 8.828 v 52.966 h 52.966 c 4.882 0 8.828 3.946 8.828 8.828 C 397.241 190.261 393.295 194.207 388.414 194.207" style="stroke: none; stroke-width: 1; stroke-dasharray: none; stroke-linecap: butt; stroke-linejoin: miter; stroke-miterlimit: 10; fill: #1c6db1; fill-rule: nonzero; opacity: 1;" transform=" matrix(1 0 0 1 0 0) " stroke-linecap="round" />
  <path d="M 112.431 408.397 c -2.26 0 -4.52 -0.865 -6.241 -2.586 c -3.452 -3.452 -3.452 -9.031 0 -12.482 L 231.038 268.48 c 3.443 -3.443 9.031 -3.443 12.482 0 c 3.443 3.452 3.443 9.039 0 12.482 L 118.672 405.81 C 116.951 407.532 114.691 408.397 112.431 408.397" style="stroke: none; stroke-width: 1; stroke-dasharray: none; stroke-linecap: butt; stroke-linejoin: miter; stroke-miterlimit: 10; fill: #1c6db1; fill-rule: nonzero; opacity: 1;" transform=" matrix(1 0 0 1 0 0) " stroke-linecap="round" />
  <path d="M 81.223 405.809 c 10.346 -10.346 24.311 -13.135 31.214 -6.241 c 6.894 6.894 4.096 20.868 -6.25 31.206 c -10.337 10.346 -24.311 13.144 -31.206 6.25 C 68.087 430.121 70.877 416.155 81.223 405.809" style="stroke: none; stroke-width: 1; stroke-dasharray: none; stroke-linecap: butt; stroke-linejoin: miter; stroke-miterlimit: 10; fill: #00d600; fill-rule: nonzero; opacity: 1;" transform=" matrix(1 0 0 1 0 0) " stroke-linecap="round" />
  <path d="M 149.888 406.069 c -4.882 0 -8.828 -3.946 -8.828 -8.828 v -26.297 h -26.297 c -4.882 0 -8.828 -3.955 -8.828 -8.828 c 0 -4.882 3.946 -8.828 8.828 -8.828 h 35.125 c 4.882 0 8.828 3.946 8.828 8.828 v 35.125 C 158.716 402.123 154.77 406.069 149.888 406.069" style="stroke: none; stroke-width: 1; stroke-dasharray: none; stroke-linecap: butt; stroke-linejoin: miter; stroke-miterlimit: 10; fill: #1c6db1; fill-rule: nonzero; opacity: 1;" transform=" matrix(1 0 0 1 0 0) " stroke-linecap="round" />
  <path d="M 185.379 397.241 c -4.882 0 -8.828 -3.946 -8.828 -8.828 V 335.36 h -52.966 c -4.882 0 -8.828 -3.946 -8.828 -8.828 c 0 -4.882 3.946 -8.828 8.828 -8.828 h 61.793 c 4.882 0 8.828 3.946 8.828 8.828 v 61.881 C 194.207 393.295 190.261 397.241 185.379 397.241" style="stroke: none; stroke-width: 1; stroke-dasharray: none; stroke-linecap: butt; stroke-linejoin: miter; stroke-miterlimit: 10; fill: #1c6db1; fill-rule: nonzero; opacity: 1;" transform=" matrix(1 0 0 1 0 0) " stroke-linecap="round" />
  <path d="M 399.569 408.397 c -2.26 0 -4.52 -0.865 -6.241 -2.586 L 268.48 280.962 c -3.443 -3.443 -3.443 -9.031 0 -12.482 c 3.452 -3.443 9.039 -3.443 12.482 0 L 405.81 393.328 c 3.452 3.452 3.452 9.031 0 12.482 C 404.089 407.532 401.829 408.397 399.569 408.397" style="stroke: none; stroke-width: 1; stroke-dasharray: none; stroke-linecap: butt; stroke-linejoin: miter; stroke-miterlimit: 10; fill: #1c6db1; fill-rule: nonzero; opacity: 1;" transform=" matrix(1 0 0 1 0 0) " stroke-linecap="round" />
  <path d="M 405.809 430.777 c -10.346 -10.346 -13.135 -24.32 -6.241 -31.214 c 6.894 -6.894 20.868 -4.096 31.206 6.25 c 10.346 10.337 13.144 24.311 6.25 31.206 C 430.129 443.913 416.155 441.123 405.809 430.777" style="stroke: none; stroke-width: 1; stroke-dasharray: none; stroke-linecap: butt; stroke-linejoin: miter; stroke-miterlimit: 10; fill: #00d600; fill-rule: nonzero; opacity: 1;" transform=" matrix(1 0 0 1 0 0) " stroke-linecap="round" />
  <path d="M 362.112 406.069 c -4.882 0 -8.828 -3.946 -8.828 -8.828 v -35.125 c 0 -4.882 3.946 -8.828 8.828 -8.828 h 35.125 c 4.882 0 8.828 3.946 8.828 8.828 c 0 4.873 -3.946 8.828 -8.828 8.828 H 370.94 v 26.297 C 370.94 402.123 366.994 406.069 362.112 406.069" style="stroke: none; stroke-width: 1; stroke-dasharray: none; stroke-linecap: butt; stroke-linejoin: miter; stroke-miterlimit: 10; fill: #1c6db1; fill-rule: nonzero; opacity: 1;" transform=" matrix(1 0 0 1 0 0) " stroke-linecap="round" />
  <path d="M 326.621 397.241 h -0.009 c -4.882 -0.009 -8.828 -3.964 -8.819 -8.836 l 0.088 -61.793 c 0.009 -4.873 3.955 -8.819 8.828 -8.819 h 61.705 c 4.882 0 8.828 3.946 8.828 8.828 c 0 4.882 -3.946 8.828 -8.828 8.828 h -52.886 l -0.079 52.974 C 335.439 393.295 331.493 397.241 326.621 397.241" style="stroke: none; stroke-width: 1; stroke-dasharray: none; stroke-linecap: butt; stroke-linejoin: miter; stroke-miterlimit: 10; fill: #1c6db1; fill-rule: nonzero; opacity: 1;" transform=" matrix(1 0 0 1 0 0) " stroke-linecap="round" />
  <path d="M 237.276 246.103 c -2.26 0 -4.52 -0.865 -6.241 -2.586 L 106.186 118.668 c -3.443 -3.443 -3.443 -9.031 0 -12.482 c 3.452 -3.443 9.039 -3.443 12.482 0 l 124.849 124.849 c 3.452 3.452 3.452 9.031 0 12.482 C 241.796 245.238 239.536 246.103 237.276 246.103" style="stroke: none; stroke-width: 1; stroke-dasharray: none; stroke-linecap: butt; stroke-linejoin: miter; stroke-miterlimit: 10; fill: #1c6db1; fill-rule: nonzero; opacity: 1;" transform=" matrix(1 0 0 1 0 0) " stroke-linecap="round" />
  <path d="M 106.191 81.223 c 10.346 10.346 13.135 24.32 6.241 31.214 c -6.894 6.894 -20.868 4.096 -31.206 -6.25 C 70.88 95.85 68.082 81.876 74.976 74.982 C 81.871 68.087 95.845 70.877 106.191 81.223" style="stroke: none; stroke-width: 1; stroke-dasharray: none; stroke-linecap: butt; stroke-linejoin: miter; stroke-miterlimit: 10; fill: #00d600; fill-rule: nonzero; opacity: 1;" transform=" matrix(1 0 0 1 0 0) " stroke-linecap="round" />
  <path d="M 149.888 158.716 h -35.125 c -4.882 0 -8.828 -3.946 -8.828 -8.828 s 3.946 -8.828 8.828 -8.828 h 26.297 v -26.297 c 0 -4.882 3.946 -8.828 8.828 -8.828 s 8.828 3.946 8.828 8.828 v 35.125 C 158.716 154.77 154.77 158.716 149.888 158.716" style="stroke: none; stroke-width: 1; stroke-dasharray: none; stroke-linecap: butt; stroke-linejoin: miter; stroke-miterlimit: 10; fill: #1c6db1; fill-rule: nonzero; opacity: 1;" transform=" matrix(1 0 0 1 0 0) " stroke-linecap="round" />
  <path d="M 185.379 194.207 h -61.793 c -4.882 0 -8.828 -3.946 -8.828 -8.828 c 0 -4.882 3.946 -8.828 8.828 -8.828 h 52.966 v -52.966 c 0 -4.882 3.946 -8.828 8.828 -8.828 c 4.882 0 8.828 3.946 8.828 8.828 v 61.793 C 194.207 190.261 190.261 194.207 185.379 194.207" style="stroke: none; stroke-width: 1; stroke-dasharray: none; stroke-linecap: butt; stroke-linejoin: miter; stroke-miterlimit: 10; fill: #1c6db1; fill-rule: nonzero; opacity: 1;" transform=" matrix(1 0 0 1 0 0) " stroke-linecap="round" />
  <path d="M 459.034 264.828 H 282.483 c -4.882 0 -8.828 -3.946 -8.828 -8.828 s 3.946 -8.828 8.828 -8.828 h 176.552 c 4.882 0 8.828 3.946 8.828 8.828 S 463.916 264.828 459.034 264.828" style="stroke: none; stroke-width: 1; stroke-dasharray: none; stroke-linecap: butt; stroke-linejoin: miter; stroke-miterlimit: 10; fill: #1c6db1; fill-rule: nonzero; opacity: 1;" transform=" matrix(1 0 0 1 0 0) " stroke-linecap="round" />
  <path d="M 485.517 273.655 c -14.627 0 -26.483 -7.901 -26.483 -17.655 s 11.855 -17.655 26.483 -17.655 S 512 246.246 512 256 S 500.145 273.655 485.517 273.655" style="stroke: none; stroke-width: 1; stroke-dasharray: none; stroke-linecap: butt; stroke-linejoin: miter; stroke-miterlimit: 10; fill: #00d600; fill-rule: nonzero; opacity: 1;" transform=" matrix(1 0 0 1 0 0) " stroke-linecap="round" />
  <path d="M 432.552 291.31 c -2.26 0 -4.52 -0.865 -6.241 -2.586 l -26.483 -26.483 c -3.452 -3.452 -3.452 -9.031 0 -12.482 l 26.483 -26.483 c 3.452 -3.452 9.031 -3.452 12.482 0 c 3.452 3.452 3.452 9.031 0 12.482 L 418.551 256 l 20.242 20.242 c 3.452 3.452 3.452 9.031 0 12.482 C 437.071 290.445 434.812 291.31 432.552 291.31" style="stroke: none; stroke-width: 1; stroke-dasharray: none; stroke-linecap: butt; stroke-linejoin: miter; stroke-miterlimit: 10; fill: #1c6db1; fill-rule: nonzero; opacity: 1;" transform=" matrix(1 0 0 1 0 0) " stroke-linecap="round" />
  <path d="M 397.241 308.966 c -2.26 0 -4.52 -0.865 -6.241 -2.586 l -44.138 -44.138 c -3.452 -3.452 -3.452 -9.031 0 -12.482 L 391 205.621 c 3.452 -3.452 9.031 -3.452 12.482 0 c 3.452 3.452 3.452 9.031 0 12.482 L 365.586 256 l 37.897 37.897 c 3.452 3.452 3.452 9.031 0 12.482 C 401.761 308.1 399.501 308.966 397.241 308.966" style="stroke: none; stroke-width: 1; stroke-dasharray: none; stroke-linecap: butt; stroke-linejoin: miter; stroke-miterlimit: 10; fill: #1c6db1; fill-rule: nonzero; opacity: 1;" transform=" matrix(1 0 0 1 0 0) " stroke-linecap="round" />
  <path d="M 229.517 264.828 H 52.966 c -4.882 0 -8.828 -3.946 -8.828 -8.828 s 3.946 -8.828 8.828 -8.828 h 176.552 c 4.882 0 8.828 3.946 8.828 8.828 S 234.399 264.828 229.517 264.828" style="stroke: none; stroke-width: 1; stroke-dasharray: none; stroke-linecap: butt; stroke-linejoin: miter; stroke-miterlimit: 10; fill: #1c6db1; fill-rule: nonzero; opacity: 1;" transform=" matrix(1 0 0 1 0 0) " stroke-linecap="round" />
  <path d="M 26.483 238.345 c 14.627 0 26.483 7.901 26.483 17.655 s -11.855 17.655 -26.483 17.655 S 0 265.754 0 256 S 11.855 238.345 26.483 238.345" style="stroke: none; stroke-width: 1; stroke-dasharray: none; stroke-linecap: butt; stroke-linejoin: miter; stroke-miterlimit: 10; fill: #00d600; fill-rule: nonzero; opacity: 1;" transform=" matrix(1 0 0 1 0 0) " stroke-linecap="round" />
  <path d="M 79.448 291.31 c -2.26 0 -4.52 -0.865 -6.241 -2.586 c -3.452 -3.452 -3.452 -9.031 0 -12.482 L 93.449 256 l -20.242 -20.242 c -3.452 -3.452 -3.452 -9.031 0 -12.482 c 3.452 -3.452 9.031 -3.452 12.482 0 l 26.483 26.483 c 3.452 3.452 3.452 9.031 0 12.482 l -26.483 26.483 C 83.968 290.445 81.708 291.31 79.448 291.31" style="stroke: none; stroke-width: 1; stroke-dasharray: none; stroke-linecap: butt; stroke-linejoin: miter; stroke-miterlimit: 10; fill: #1c6db1; fill-rule: nonzero; opacity: 1;" transform=" matrix(1 0 0 1 0 0) " stroke-linecap="round" />
  <path d="M 114.759 308.966 c -2.26 0 -4.52 -0.865 -6.241 -2.586 c -3.452 -3.452 -3.452 -9.031 0 -12.482 L 146.414 256 l -37.897 -37.897 c -3.452 -3.452 -3.452 -9.031 0 -12.482 c 3.452 -3.452 9.031 -3.452 12.482 0 l 44.138 44.138 c 3.452 3.452 3.452 9.031 0 12.482 L 121 306.379 C 119.278 308.1 117.018 308.966 114.759 308.966" style="stroke: none; stroke-width: 1; stroke-dasharray: none; stroke-linecap: butt; stroke-linejoin: miter; stroke-miterlimit: 10; fill: #1c6db1; fill-rule: nonzero; opacity: 1;" transform=" matrix(1 0 0 1 0 0) " stroke-linecap="round" />
  <path d="M 282.483 256 c 0 -14.627 -11.855 -26.483 -26.483 -26.483 c -14.627 0 -26.483 11.855 -26.483 26.483 c 0 14.627 11.855 26.483 26.483 26.483 C 270.627 282.483 282.483 270.627 282.483 256" style="stroke: none; stroke-width: 1; stroke-dasharray: none; stroke-linecap: butt; stroke-linejoin: miter; stroke-miterlimit: 10; fill: #1c6db1; fill-rule: nonzero; opacity: 1;" transform=" matrix(1 0 0 1 0 0) " stroke-linecap="round" />
</g>
<g style="stroke: none; stroke-width: 1; stroke-dasharray: none; stroke-linecap: butt; stroke-linejoin: miter; stroke-miterlimit: 10; fill: none; fill-rule: nonzero; opacity: 1;" transform="translate(10 378) scale(0.18 0.18)" >
  <path d="M 38.757 159.641 c 0 -23.451 -14.386 -42.704 -26.717 -44.807 c -1.204 6.289 -1.841 12.779 -1.841 19.419 v 53.084 c 0 5.851 0.497 11.585 1.436 17.168 C 24.054 202.763 38.757 183.351 38.757 159.641 z" style="stroke: none; stroke-width: 1; stroke-dasharray: none; stroke-linecap: butt; stroke-linejoin: miter; stroke-miterlimit: 10; fill: #000000; fill-rule: nonzero; opacity: 1;" transform=" matrix(1 0 0 1 0 0) " stroke-linecap="round" />
  <path d="M 12.04 114.834 c 12.331 2.102 26.717 21.355 26.717 44.807 c 0 23.709 -14.703 43.122 -27.122 44.864 c 8.172 48.548 50.397 85.537 101.269 85.537 h 43.851 V 31.548 h -43.85 C 62.822 31.548 21.119 67.398 12.04 114.834 z" style="stroke: none; stroke-width: 1; stroke-dasharray: none; stroke-linecap: butt; stroke-linejoin: miter; stroke-miterlimit: 10; fill: #fff5f7; fill-rule: nonzero; opacity: 1;" transform=" matrix(1 0 0 1 0 0) " stroke-linecap="round" />
  <path d="M 501.801 134.254 c 0 -6.64 -0.637 -13.129 -1.841 -19.419 c -12.331 2.102 -26.717 21.355 -26.717 44.807 c 0 23.709 14.703 43.122 27.122 44.864 c 0.939 -5.583 1.436 -11.317 1.436 -17.168 V 134.254 z" style="stroke: none; stroke-width: 1; stroke-dasharray: none; stroke-linecap: butt; stroke-linejoin: miter; stroke-miterlimit: 10; fill: #000000; fill-rule: nonzero; opacity: 1;" transform=" matrix(1 0 0 1 0 0) " stroke-linecap="round" />
  <path d="M 473.243 159.641 c 0 -23.451 14.386 -42.704 26.717 -44.807 c -9.078 -47.437 -50.781 -83.287 -100.864 -83.287 h -43.851 v 258.495 h 43.85 c 50.872 0 93.097 -36.988 101.269 -85.537 C 487.946 202.763 473.243 183.351 473.243 159.641 z" style="stroke: none; stroke-width: 1; stroke-dasharray: none; stroke-linecap: butt; stroke-linejoin: miter; stroke-miterlimit: 10; fill: #fff5f7; fill-rule: nonzero; opacity: 1;" transform=" matrix(1 0 0 1 0 0) " stroke-linecap="round" />
  <path d="M 230.612 83.478 c 0 -28.68 -23.25 -51.929 -51.929 -51.929 h -21.926 v 258.495 h 21.926 v 122.323 h 51.929 V 83.478 z" style="stroke: none; stroke-width: 1; stroke-dasharray: none; stroke-linecap: butt; stroke-linejoin: miter; stroke-miterlimit: 10; fill: #fff5f7; fill-rule: nonzero; opacity: 1;" transform=" matrix(1 0 0 1 0 0) " stroke-linecap="round" />
  <path d="M 281.388 83.478 c 0 -28.68 23.25 -51.929 51.929 -51.929 h 21.926 v 258.495 h -21.926 v 122.323 h -51.929 V 83.478 z" style="stroke: none; stroke-width: 1; stroke-dasharray: none; stroke-linecap: butt; stroke-linejoin: miter; stroke-miterlimit: 10; fill: #fff5f7; fill-rule: nonzero; opacity: 1;" transform=" matrix(1 0 0 1 0 0) " stroke-linecap="round" />
  <path d="M 333.318 21.348 c -34.258 0 -62.129 27.871 -62.129 62.129 v 328.888 c 0 5.633 4.566 10.199 10.199 10.199 h 1.34 v 57.887 c 0 5.633 4.566 10.199 10.199 10.199 s 10.199 -4.566 10.199 -10.199 v -57.887 h 30.191 c 5.633 0 10.199 -4.566 10.199 -10.199 V 300.242 h 55.578 c 26.853 0 52.875 -9.59 73.27 -27.005 c 20.163 -17.216 33.679 -41.024 38.056 -67.038 c 1.046 -6.22 1.578 -12.566 1.578 -18.861 v -53.084 c 0 -7.143 -0.68 -14.322 -2.024 -21.336 c -10.155 -53.058 -56.787 -91.568 -110.882 -91.568 H 333.318 z M 491.594 133.131 c 0.004 0.374 0.007 0.749 0.007 1.123 v 51.846 c -4.409 -6.212 -8.159 -15.49 -8.159 -26.458 C 483.442 148.595 487.18 139.322 491.594 133.131 z M 333.318 279.843 c -5.633 0 -10.199 4.566 -10.199 10.199 v 112.124 h -31.532 V 83.478 c 0 -23.01 18.72 -41.731 41.731 -41.731 h 11.727 v 238.096 H 333.318 z M 399.095 279.843 h -33.652 V 41.747 h 24.607 v 166.362 c 0 5.633 4.566 10.199 10.199 10.199 s 10.199 -4.566 10.199 -10.199 V 42.459 c 36.652 4.52 67.392 30.623 77.579 66.256 c -14.283 8.68 -24.983 29.349 -24.983 50.927 c 0 21.638 11.104 42.668 25.543 51.205 C 478.079 251.281 441.665 279.843 399.095 279.843 z" style="stroke: none; stroke-width: 1; stroke-dasharray: none; stroke-linecap: butt; stroke-linejoin: miter; stroke-miterlimit: 10; fill: #333333; fill-rule: nonzero; opacity: 1;" transform=" matrix(1 0 0 1 0 0) " stroke-linecap="round" />
  <path d="M 112.905 21.348 c -54.095 0 -100.726 38.51 -110.882 91.568 C 0.68 119.932 0 127.111 0 134.254 v 53.084 c 0 6.295 0.531 12.641 1.578 18.861 c 4.379 26.013 17.893 49.821 38.056 67.037 c 20.395 17.415 46.417 27.005 73.27 27.005 h 55.579 v 112.124 c 0 5.633 4.566 10.199 10.199 10.199 h 30.191 v 57.887 c 0 5.633 4.566 10.199 10.199 10.199 c 5.633 0 10.199 -4.566 10.199 -10.199 v -57.887 h 1.34 c 5.633 0 10.199 -4.566 10.199 -10.199 V 83.478 c 0 -34.258 -27.871 -62.129 -62.129 -62.129 H 112.905 z M 146.557 279.843 H 121.95 V 41.747 h 24.608 V 279.843 z M 20.398 186.099 v -51.846 c 0 -0.374 0.002 -0.749 0.007 -1.123 c 4.414 6.191 8.152 15.464 8.152 26.511 C 28.558 170.61 24.808 179.887 20.398 186.099 z M 23.413 210.847 c 14.439 -8.537 25.543 -29.568 25.543 -51.205 c 0 -21.577 -10.7 -42.247 -24.984 -50.927 C 34.16 73.082 64.9 46.98 101.551 42.459 v 236.681 C 63.979 274.574 32.972 247.633 23.413 210.847 z M 178.682 279.843 h -11.727 V 41.747 h 11.727 c 23.01 0 41.731 18.72 41.731 41.731 v 318.688 h -31.532 V 290.042 C 188.881 284.409 184.315 279.843 178.682 279.843 z" style="stroke: none; stroke-width: 1; stroke-dasharray: none; stroke-linecap: butt; stroke-linejoin: miter; stroke-miterlimit: 10; fill: #333333; fill-rule: nonzero; opacity: 1;" transform=" matrix(1 0 0 1 0 0) " stroke-linecap="round" />
  <path d="M 400.249 233.684 c -5.633 0 -10.199 4.566 -10.199 10.199 v 5.77 c 0 5.633 4.566 10.199 10.199 10.199 s 10.199 -4.566 10.199 -10.199 v -5.77 C 410.449 238.25 405.882 233.684 400.249 233.684 z" style="stroke: none; stroke-width: 1; stroke-dasharray: none; stroke-linecap: butt; stroke-linejoin: miter; stroke-miterlimit: 10; fill: #333333; fill-rule: nonzero; opacity: 1;" transform=" matrix(1 0 0 1 0 0) " stroke-linecap="round" />
</g>
  <g transform="translate(249.73 404.72)">
   <text font-family="REIS" font-size="40" font-weight="normal" style="stroke: none; stroke-width: 1; stroke-dasharray: none; stroke-linecap: butt; stroke-linejoin: miter; stroke-miterlimit: 10; fill: #000000; fill-rule: nonzero; opacity: 1;" ><tspan x="-136.23" y="8.98" style="stroke: none; stroke-width: 0; stroke-dasharray: none; stroke-linecap: butt; stroke-linejoin: miter; stroke-miterlimit: 4; fill: #000000; fill-rule: ; opacity: 1;">B</tspan><tspan x="-121.54" y="8.98" style="stroke: none; stroke-width: 0; stroke-dasharray: none; stroke-linecap: butt; stroke-linejoin: miter; stroke-miterlimit: 4; fill: #000000; fill-rule: ; opacity: 1;">e</tspan><tspan x="-109.63" y="8.98" style="stroke: none; stroke-width: 0; stroke-dasharray: none; stroke-linecap: butt; stroke-linejoin: miter; stroke-miterlimit: 4; fill: #000000; fill-rule: ; opacity: 1;">g</tspan><tspan x="-96.06" y="8.98" style="stroke: none; stroke-width: 0; stroke-dasharray: none; stroke-linecap: butt; stroke-linejoin: miter; stroke-miterlimit: 4; fill: #000000; fill-rule: ; opacity: 1;">i</tspan><tspan x="-89.66" y="8.98" style="stroke: none; stroke-width: 0; stroke-dasharray: none; stroke-linecap: butt; stroke-linejoin: miter; stroke-miterlimit: 4; fill: #000000; fill-rule: ; opacity: 1;">n</tspan><tspan x="-76.14" y="8.98" style="stroke: none; stroke-width: 0; stroke-dasharray: none; stroke-linecap: butt; stroke-linejoin: miter; stroke-miterlimit: 4; fill: #000000; fill-rule: ; opacity: 1;">n</tspan><tspan x="-62.63" y="8.98" style="stroke: none; stroke-width: 0; stroke-dasharray: none; stroke-linecap: butt; stroke-linejoin: miter; stroke-miterlimit: 4; fill: #000000; fill-rule: ; opacity: 1;">e</tspan><tspan x="-50.71" y="8.98" style="stroke: none; stroke-width: 0; stroke-dasharray: none; stroke-linecap: butt; stroke-linejoin: miter; stroke-miterlimit: 4; fill: #000000; fill-rule: ; opacity: 1;">r</tspan><tspan x="-37.42" y="8.98" style="stroke: none; stroke-width: 0; stroke-dasharray: none; stroke-linecap: butt; stroke-linejoin: miter; stroke-miterlimit: 4; fill: #000000; fill-rule: ; opacity: 1;">&apos;</tspan><tspan x="-32.02" y="8.98" style="stroke: none; stroke-width: 0; stroke-dasharray: none; stroke-linecap: butt; stroke-linejoin: miter; stroke-miterlimit: 4; fill: #000000; fill-rule: ; opacity: 1;">s</tspan><tspan x="-21.34" y="8.98" style="stroke: none; stroke-width: 0; stroke-dasharray: none; stroke-linecap: butt; stroke-linejoin: miter; stroke-miterlimit: 4; fill: #000000; fill-rule: ; opacity: 1;"> </tspan><tspan x="-9.34" y="8.98" style="stroke: none; stroke-width: 0; stroke-dasharray: none; stroke-linecap: butt; stroke-linejoin: miter; stroke-miterlimit: 4; fill: #000000; fill-rule: ; opacity: 1;">L</tspan><tspan x="1.66" y="8.98" style="stroke: none; stroke-width: 0; stroke-dasharray: none; stroke-linecap: butt; stroke-linejoin: miter; stroke-miterlimit: 4; fill: #000000; fill-rule: ; opacity: 1;">u</tspan><tspan x="17.49" y="8.98" style="stroke: none; stroke-width: 0; stroke-dasharray: none; stroke-linecap: butt; stroke-linejoin: miter; stroke-miterlimit: 4; fill: #000000; fill-rule: ; opacity: 1;">c</tspan><tspan x="30.89" y="8.98" style="stroke: none; stroke-width: 0; stroke-dasharray: none; stroke-linecap: butt; stroke-linejoin: miter; stroke-miterlimit: 4; fill: #000000; fill-rule: ; opacity: 1;">k</tspan><tspan x="44.37" y="8.98" style="stroke: none; stroke-width: 0; stroke-dasharray: none; stroke-linecap: butt; stroke-linejoin: miter; stroke-miterlimit: 4; fill: #000000; fill-rule: ; opacity: 1;"> </tspan><tspan x="56.37" y="8.98" style="stroke: none; stroke-width: 0; stroke-dasharray: none; stroke-linecap: butt; stroke-linejoin: miter; stroke-miterlimit: 4; fill: #000000; fill-rule: ; opacity: 1;">s</tspan><tspan x="67.06" y="8.98" style="stroke: none; stroke-width: 0; stroke-dasharray: none; stroke-linecap: butt; stroke-linejoin: miter; stroke-miterlimit: 4; fill: #000000; fill-rule: ; opacity: 1;">t</tspan><tspan x="80.46" y="8.98" style="stroke: none; stroke-width: 0; stroke-dasharray: none; stroke-linecap: butt; stroke-linejoin: miter; stroke-miterlimit: 4; fill: #000000; fill-rule: ; opacity: 1;">r</tspan><tspan x="93.74" y="8.98" style="stroke: none; stroke-width: 0; stroke-dasharray: none; stroke-linecap: butt; stroke-linejoin: miter; stroke-miterlimit: 4; fill: #000000; fill-rule: ; opacity: 1;">i</tspan><tspan x="100.14" y="8.98" style="stroke: none; stroke-width: 0; stroke-dasharray: none; stroke-linecap: butt; stroke-linejoin: miter; stroke-miterlimit: 4; fill: #000000; fill-rule: ; opacity: 1;">k</tspan><tspan x="113.63" y="8.98" style="stroke: none; stroke-width: 0; stroke-dasharray: none; stroke-linecap: butt; stroke-linejoin: miter; stroke-miterlimit: 4; fill: #000000; fill-rule: ; opacity: 1;">e</tspan><tspan x="125.54" y="8.98" style="stroke: none; stroke-width: 0; stroke-dasharray: none; stroke-linecap: butt; stroke-linejoin: miter; stroke-miterlimit: 4; fill: #000000; fill-rule: ; opacity: 1;">s</tspan></text>
 </g>
  <g transform="translate(243.72 435.86) scale(0.37 0.37)">
   <text font-family="Comic Neue" font-size="40" font-weight="normal" style="stroke: none; stroke-width: 1; stroke-dasharray: none; stroke-linecap: butt; stroke-linejoin: miter; stroke-miterlimit: 10; fill: #000000; fill-rule: nonzero; opacity: 1;" ><tspan x="-190.62" y="8.98" style="stroke: none; stroke-width: 0; stroke-dasharray: none; stroke-linecap: butt; stroke-linejoin: miter; stroke-miterlimit: 4; fill: #000000; fill-rule: ; opacity: 1;">G</tspan><tspan x="-160.59" y="8.98" style="stroke: none; stroke-width: 0; stroke-dasharray: none; stroke-linecap: butt; stroke-linejoin: miter; stroke-miterlimit: 4; fill: #000000; fill-rule: ; opacity: 1;">r</tspan><tspan x="-143.97" y="8.98" style="stroke: none; stroke-width: 0; stroke-dasharray: none; stroke-linecap: butt; stroke-linejoin: miter; stroke-miterlimit: 4; fill: #000000; fill-rule: ; opacity: 1;">o</tspan><tspan x="-122.59" y="8.98" style="stroke: none; stroke-width: 0; stroke-dasharray: none; stroke-linecap: butt; stroke-linejoin: miter; stroke-miterlimit: 4; fill: #000000; fill-rule: ; opacity: 1;">w</tspan><tspan x="-98.84" y="8.98" style="stroke: none; stroke-width: 0; stroke-dasharray: none; stroke-linecap: butt; stroke-linejoin: miter; stroke-miterlimit: 4; fill: #000000; fill-rule: ; opacity: 1;">s</tspan><tspan x="-80.54" y="8.98" style="stroke: none; stroke-width: 0; stroke-dasharray: none; stroke-linecap: butt; stroke-linejoin: miter; stroke-miterlimit: 4; fill: #000000; fill-rule: ; opacity: 1;"> </tspan><tspan x="-67.36" y="8.98" style="stroke: none; stroke-width: 0; stroke-dasharray: none; stroke-linecap: butt; stroke-linejoin: miter; stroke-miterlimit: 4; fill: #000000; fill-rule: ; opacity: 1;">Y</tspan><tspan x="-43.64" y="8.98" style="stroke: none; stroke-width: 0; stroke-dasharray: none; stroke-linecap: butt; stroke-linejoin: miter; stroke-miterlimit: 4; fill: #000000; fill-rule: ; opacity: 1;">o</tspan><tspan x="-22.26" y="8.98" style="stroke: none; stroke-width: 0; stroke-dasharray: none; stroke-linecap: butt; stroke-linejoin: miter; stroke-miterlimit: 4; fill: #000000; fill-rule: ; opacity: 1;">u</tspan><tspan x="-1.79" y="8.98" style="stroke: none; stroke-width: 0; stroke-dasharray: none; stroke-linecap: butt; stroke-linejoin: miter; stroke-miterlimit: 4; fill: #000000; fill-rule: ; opacity: 1;">r</tspan><tspan x="14.83" y="8.98" style="stroke: none; stroke-width: 0; stroke-dasharray: none; stroke-linecap: butt; stroke-linejoin: miter; stroke-miterlimit: 4; fill: #000000; fill-rule: ; opacity: 1;"> </tspan><tspan x="28.01" y="8.98" style="stroke: none; stroke-width: 0; stroke-dasharray: none; stroke-linecap: butt; stroke-linejoin: miter; stroke-miterlimit: 4; fill: #000000; fill-rule: ; opacity: 1;">B</tspan><tspan x="52.11" y="8.98" style="stroke: none; stroke-width: 0; stroke-dasharray: none; stroke-linecap: butt; stroke-linejoin: miter; stroke-miterlimit: 4; fill: #000000; fill-rule: ; opacity: 1;">u</tspan><tspan x="72.58" y="8.98" style="stroke: none; stroke-width: 0; stroke-dasharray: none; stroke-linecap: butt; stroke-linejoin: miter; stroke-miterlimit: 4; fill: #000000; fill-rule: ; opacity: 1;">s</tspan><tspan x="90.88" y="8.98" style="stroke: none; stroke-width: 0; stroke-dasharray: none; stroke-linecap: butt; stroke-linejoin: miter; stroke-miterlimit: 4; fill: #000000; fill-rule: ; opacity: 1;">i</tspan><tspan x="98.63" y="8.98" style="stroke: none; stroke-width: 0; stroke-dasharray: none; stroke-linecap: butt; stroke-linejoin: miter; stroke-miterlimit: 4; fill: #000000; fill-rule: ; opacity: 1;">n</tspan><tspan x="120.01" y="8.98" style="stroke: none; stroke-width: 0; stroke-dasharray: none; stroke-linecap: butt; stroke-linejoin: miter; stroke-miterlimit: 4; fill: #000000; fill-rule: ; opacity: 1;">e</tspan><tspan x="140.84" y="8.98" style="stroke: none; stroke-width: 0; stroke-dasharray: none; stroke-linecap: butt; stroke-linejoin: miter; stroke-miterlimit: 4; fill: #000000; fill-rule: ; opacity: 1;">s</tspan><tspan x="159.14" y="8.98" style="stroke: none; stroke-width: 0; stroke-dasharray: none; stroke-linecap: butt; stroke-linejoin: miter; stroke-miterlimit: 4; fill: #000000; fill-rule: ; opacity: 1;">s</tspan><tspan x="177.44" y="8.98" style="stroke: none; stroke-width: 0; stroke-dasharray: none; stroke-linecap: butt; stroke-linejoin: miter; stroke-miterlimit: 4; fill: #000000; fill-rule: ; opacity: 1;"> </tspan></text>
 </g>
</svg>